<svg width="161" height="34" viewBox="0 0 161 34" fill="none" xmlns="http://www.w3.org/2000/svg">
<path d="M152.355 26.4255H148.161V9.85736C148.161 9.26314 147.637 8.73884 147.042 8.73884H140.506V4.54437H147.042C148.196 4.54437 149.314 4.92887 150.258 5.62794C151.202 4.92887 152.321 4.54437 153.474 4.54437H160.01V8.73884H153.474C152.88 8.73884 152.355 9.26314 152.355 9.85736V26.4255Z" fill="#4EA674"/>
<path d="M130.111 19.3998H124.694V26.4255H120.499V9.85736C120.499 6.92124 122.876 4.54437 125.812 4.54437H131.894C135.984 4.54437 139.339 7.86499 139.339 11.9546C139.339 14.7859 137.731 17.3375 135.25 18.5958L139.829 26.4255H134.97L131.44 20.3435C131.09 19.7493 130.845 19.4697 130.111 19.3998ZM124.694 15.2053H131.894C133.677 15.2053 135.145 13.7372 135.145 11.9546C135.145 10.2069 133.677 8.73884 131.894 8.73884H125.812C125.218 8.73884 124.694 9.26314 124.694 9.85736V15.2053Z" fill="#4EA674"/>
<path d="M75.1727 26.4255V9.85736C75.1727 6.92124 77.5496 4.54437 80.4857 4.54437H85.6589C90.2378 4.54437 94.0129 8.28444 94.0129 12.8983C94.0129 17.4773 90.2378 21.2523 85.6589 21.2523H79.3672V26.4255H75.1727ZM85.6589 17.0579C87.9309 17.0579 89.8184 15.1703 89.8184 12.8983C89.8184 10.6263 87.9309 8.73884 85.6589 8.73884H80.4857C79.8915 8.73884 79.3672 9.26314 79.3672 9.85736V17.0579H85.6589Z" fill="#4EA674"/>
<path d="M56.7075 4.54437H60.902V21.1125C60.902 21.7067 61.4263 22.231 62.0205 22.231H73.2756V26.4255H62.0205C59.0844 26.4255 56.7075 24.0486 56.7075 21.1125V4.54437Z" fill="#4EA674"/>
<path d="M26.451 26.4255C23.5149 26.4255 21.1381 24.0487 21.1381 21.1126V9.85741C21.1381 6.92129 23.5149 4.54442 26.451 4.54442H37.7062V8.73889H26.451C25.8568 8.73889 25.3325 9.2632 25.3325 9.85741V12.9683H35.6789V17.1628H25.3325V21.1126C25.3325 21.7068 25.8568 22.2311 26.451 22.2311H33.1272C39.2092 22.2311 42.9842 11.7799 45.5359 6.99119C46.5845 4.92892 48.9963 3.70553 51.2683 4.22984C53.4704 4.75415 54.8336 6.71156 54.8336 8.98357V26.4255H50.6391V20.9378H42.6347C40.2229 24.0836 37.2168 26.4255 33.1272 26.4255C30.8902 26.4255 28.6881 26.4255 26.451 26.4255ZM50.6391 16.7433V8.98357C50.6391 7.83009 49.6255 8.24953 49.206 9.01852C47.8428 11.5702 46.6893 14.1917 45.2912 16.7433H50.6391Z" fill="#4EA674"/>
<path d="M0.00610352 26.4255V9.85736C0.00610352 6.92124 2.38297 4.54437 5.31909 4.54437H8.04549C14.6867 4.54437 19.3705 8.98351 19.4055 15.5199C19.4055 21.2873 15.5606 26.4255 9.44365 26.4255H0.00610352ZM4.16561 9.85736V22.231H9.44365C13.1488 22.231 15.211 18.9104 15.211 15.5199C15.211 11.3254 12.2749 8.73884 8.04549 8.73884H5.31909C4.72487 8.73884 4.16561 9.26314 4.16561 9.85736Z" fill="#4EA674"/>
<path d="M105.278 22.5762C105.64 22.5753 105.94 22.6992 106.203 22.9619C106.466 23.2248 106.59 23.5251 106.589 23.8857C106.587 24.2489 106.462 24.5515 106.201 24.8154C105.943 25.0763 105.644 25.2 105.279 25.1982H105.277C104.913 25.1982 104.612 25.0742 104.351 24.8135C104.091 24.5528 103.966 24.2516 103.966 23.8867C103.965 23.5226 104.09 23.2228 104.351 22.9629C104.614 22.7019 104.915 22.5771 105.278 22.5762ZM114.019 22.5762C114.381 22.5753 114.682 22.699 114.945 22.9619C115.208 23.2248 115.331 23.5252 115.33 23.8857C115.329 24.2489 115.204 24.5515 114.943 24.8154C114.685 25.0764 114.386 25.2 114.02 25.1982H114.018C113.655 25.1982 113.354 25.074 113.094 24.8135C112.833 24.5528 112.708 24.2517 112.708 23.8867C112.707 23.5227 112.831 23.2228 113.093 22.9629C113.355 22.7018 113.656 22.5771 114.019 22.5762ZM102.598 8.58984L103.308 10.0879L103.428 10.3379H117.387L113.52 17.3311H105.98L105.855 17.5576L104.894 19.3057L104.538 19.9531H115.33V20.8281H103.066L105.31 16.7549L105.418 16.5596L105.322 16.3574L102.176 9.71387L102.057 9.46387H100.47V8.58984H102.598Z" fill="#4EA674" stroke="#4EA674" stroke-width="0.874166"/>
<path d="M95.8134 12.0645H101.845" stroke="#4EA674" stroke-width="0.603175" stroke-linecap="round"/>
<path d="M97.6259 15.082H102.451" stroke="#4EA674" stroke-width="0.603175" stroke-linecap="round"/>
<path d="M95.2118 18.0977H102.45" stroke="#4EA674" stroke-width="0.603175" stroke-linecap="round"/>
</svg>
